{
  "accessors": [
    {
      "bufferView": 2,
      "componentType": 5126,
      "count": 3848,
      "max": [
        411.85589599609375,
        339.09320068359375,
        141.42750549316406
      ],
      "min": [
        -412.6875,
        -562.8737182617188,
        -1.421084963300432e-14
      ],
      "type": "VEC3"
    },
    {
      "bufferView": 2,
      "byteOffset": 46176,
      "componentType": 5126,
      "count": 3848,
      "max": [
        1.0,
        1.0,
        1.0
      ],
      "min": [
        -1.0,
        -1.0,
        -1.0
      ],
      "type": "VEC3"
    },
    {
      "bufferView": 1,
      "componentType": 5126,
      "count": 3848,
      "max": [
        0.9983199834823608,
        0.9895949959754944
      ],
      "min": [
        0.001677999971434474,
        0.001677999971434474
      ],
      "type": "VEC2"
    },
    {
      "bufferView": 0,
      "componentType": 5125,
      "count": 7524,
      "type": "SCALAR"
    },
    {
      "bufferView": 2,
      "byteOffset": 92352,
      "componentType": 5126,
      "count": 7488,
      "max": [
        204.02279663085938,
        336.8489990234375,
        29.123369216918945
      ],
      "min": [
        -410.4433898925781,
        -322.1995849609375,
        25.873369216918945
      ],
      "type": "VEC3"
    },
    {
      "bufferView": 2,
      "byteOffset": 182208,
      "componentType": 5126,
      "count": 7488,
      "max": [
        1.0,
        1.0,
        0.9914448857307434
      ],
      "min": [
        -1.0,
        -1.0,
        -0.9914448857307434
      ],
      "type": "VEC3"
    },
    {
      "bufferView": 0,
      "byteOffset": 30096,
      "componentType": 5125,
      "count": 12096,
      "type": "SCALAR"
    },
    {
      "bufferView": 2,
      "byteOffset": 272064,
      "componentType": 5126,
      "count": 2248,
      "max": [
        409.53253173828125,
        197.39088439941406,
        63.019508361816406
      ],
      "min": [
        -388.9073181152344,
        -642.8970336914063,
        0.0
      ],
      "type": "VEC3"
    },
    {
      "bufferView": 2,
      "byteOffset": 299040,
      "componentType": 5126,
      "count": 2248,
      "max": [
        1.0,
        1.0,
        5.635734851239249e-06
      ],
      "min": [
        -1.0,
        -1.0,
        -5.635734851239249e-06
      ],
      "type": "VEC3"
    },
    {
      "bufferView": 1,
      "byteOffset": 30784,
      "componentType": 5126,
      "count": 2248,
      "max": [
        0.9999802708625793,
        0.9997528791427612
      ],
      "min": [
        7.092183977874811e-07,
        -1.4096050335865584e-06
      ],
      "type": "VEC2"
    },
    {
      "bufferView": 0,
      "byteOffset": 78480,
      "componentType": 5125,
      "count": 4752,
      "type": "SCALAR"
    },
    {
      "bufferView": 2,
      "byteOffset": 326016,
      "componentType": 5126,
      "count": 32,
      "max": [
        409.6575012207031,
        197.39089965820313,
        63.019508361816406
      ],
      "min": [
        -389.03228759765625,
        -643.02197265625,
        1.421084963300432e-14
      ],
      "type": "VEC3"
    },
    {
      "bufferView": 2,
      "byteOffset": 326400,
      "componentType": 5126,
      "count": 32,
      "max": [
        1.0,
        1.0,
        2.2889580009177735e-07
      ],
      "min": [
        -1.0,
        -1.0,
        -2.2889580009177735e-07
      ],
      "type": "VEC3"
    },
    {
      "bufferView": 1,
      "byteOffset": 48768,
      "componentType": 5126,
      "count": 32,
      "max": [
        1.0,
        0.9997196197509766
      ],
      "min": [
        -5.4342238987783315e-14,
        -6.449777248184927e-22
      ],
      "type": "VEC2"
    },
    {
      "bufferView": 0,
      "byteOffset": 97488,
      "componentType": 5125,
      "count": 48,
      "type": "SCALAR"
    },
    {
      "bufferView": 2,
      "byteOffset": 326784,
      "componentType": 5126,
      "count": 816,
      "max": [
        -12.243377685546875,
        -298.0635070800781,
        141.42750549316406
      ],
      "min": [
        -389.03228759765625,
        -643.02197265625,
        1.421084963300432e-14
      ],
      "type": "VEC3"
    },
    {
      "bufferView": 2,
      "byteOffset": 336576,
      "componentType": 5126,
      "count": 816,
      "max": [
        1.0,
        1.0,
        1.0
      ],
      "min": [
        -1.0,
        -1.0,
        -1.0
      ],
      "type": "VEC3"
    },
    {
      "bufferView": 1,
      "byteOffset": 49024,
      "componentType": 5126,
      "count": 816,
      "max": [
        0.9968870282173157,
        0.9987639784812927
      ],
      "min": [
        0.0012509999796748161,
        0.0012359999818727374
      ],
      "type": "VEC2"
    },
    {
      "bufferView": 0,
      "byteOffset": 97680,
      "componentType": 5125,
      "count": 1548,
      "type": "SCALAR"
    },
    {
      "bufferView": 2,
      "byteOffset": 346368,
      "componentType": 5126,
      "count": 160,
      "max": [
        230.5832061767578,
        197.3907928466797,
        143.17750549316406
      ],
      "min": [
        -231.41490173339844,
        -501.3197021484375,
        79.14077758789063
      ],
      "type": "VEC3"
    },
    {
      "bufferView": 2,
      "byteOffset": 348288,
      "componentType": 5126,
      "count": 160,
      "max": [
        1.0,
        1.0,
        0.0
      ],
      "min": [
        -1.0,
        -1.0,
        0.0
      ],
      "type": "VEC3"
    },
    {
      "bufferView": 0,
      "byteOffset": 103872,
      "componentType": 5125,
      "count": 240,
      "type": "SCALAR"
    },
    {
      "bufferView": 2,
      "byteOffset": 350208,
      "componentType": 5126,
      "count": 40,
      "max": [
        230.5832061767578,
        197.3907928466797,
        143.17750549316406
      ],
      "min": [
        -231.41490173339844,
        -501.3197021484375,
        80.89077758789063
      ],
      "type": "VEC3"
    },
    {
      "bufferView": 2,
      "byteOffset": 350688,
      "componentType": 5126,
      "count": 40,
      "max": [
        -0.0,
        -0.0,
        1.0
      ],
      "min": [
        -0.0,
        -0.0,
        -1.0
      ],
      "type": "VEC3"
    },
    {
      "bufferView": 1,
      "byteOffset": 55552,
      "componentType": 5126,
      "count": 40,
      "max": [
        0.7744380831718445,
        0.7804391980171204
      ],
      "min": [
        -0.007000000216066837,
        -0.0010000000474974513
      ],
      "type": "VEC2"
    },
    {
      "bufferView": 0,
      "byteOffset": 104832,
      "componentType": 5125,
      "count": 60,
      "type": "SCALAR"
    },
    {
      "bufferView": 2,
      "byteOffset": 351168,
      "componentType": 5126,
      "count": 849,
      "max": [
        -172.9313507080078,
        -297.1883850097656,
        59.625
      ],
      "min": [
        -228.7617950439453,
        -298.0635070800781,
        3.5
      ],
      "type": "VEC3"
    },
    {
      "bufferView": 2,
      "byteOffset": 361356,
      "componentType": 5126,
      "count": 849,
      "max": [
        1.0,
        1.0,
        1.0
      ],
      "min": [
        -1.0,
        -1.0,
        -1.0
      ],
      "type": "VEC3"
    },
    {
      "bufferView": 0,
      "byteOffset": 105072,
      "componentType": 5125,
      "count": 1287,
      "type": "SCALAR"
    }
  ],
  "asset": {
    "extras": {
      "author": "jimbogies (https://sketchfab.com/jimbogies)",
      "license": "CC-BY-4.0 (http://creativecommons.org/licenses/by/4.0/)",
      "source": "https://sketchfab.com/3d-models/back-rooms-walk-thru-virtual-reality-2b00ade81abb4efc8c01801a27a3c86f",
      "title": "Back Rooms Walk-Thru Virtual Reality"
    },
    "generator": "Sketchfab-15.10.0",
    "version": "2.0"
  },
  "bufferViews": [
    {
      "buffer": 0,
      "byteLength": 110220,
      "name": "floatBufferViews",
      "target": 34963
    },
    {
      "buffer": 0,
      "byteLength": 55872,
      "byteOffset": 110220,
      "byteStride": 8,
      "name": "floatBufferViews",
      "target": 34962
    },
    {
      "buffer": 0,
      "byteLength": 371544,
      "byteOffset": 166092,
      "byteStride": 12,
      "name": "floatBufferViews",
      "target": 34962
    }
  ],
  "buffers": [
    {
      "byteLength": 537636,
      "uri": "scene.bin"
    }
  ],
  "extensionsUsed": [
    "KHR_materials_specular"
  ],
  "images": [
    {
      "uri": "textures/BackRooms_Diffuse_baseColor.jpeg"
    },
    {
      "uri": "textures/BackRooms_Diffuse_metallicRoughness.png"
    },
    {
      "uri": "textures/Door_Diffuse_baseColor.png"
    },
    {
      "uri": "textures/Door_Diffuse_metallicRoughness.png"
    },
    {
      "uri": "textures/DoorGlass_baseColor.jpeg"
    },
    {
      "uri": "textures/PurpleRoom_Diffuse_baseColor.jpeg"
    },
    {
      "uri": "textures/PurpleRoom_Diffuse_metallicRoughness.png"
    },
    {
      "uri": "textures/PurpleRoom_Diffuse_emissive.jpeg"
    },
    {
      "uri": "textures/LightGrid_baseColor.jpeg"
    }
  ],
  "materials": [
    {
      "extensions": {
        "KHR_materials_specular": {
          "specularColorFactor": [
            1.0,
            1.0,
            1.0
          ],
          "specularFactor": 0.3337153027513988
        }
      },
      "name": "BackRooms_Diffuse",
      "pbrMetallicRoughness": {
        "baseColorTexture": {
          "index": 0
        },
        "metallicFactor": 0.0,
        "metallicRoughnessTexture": {
          "index": 1
        }
      }
    },
    {
      "name": "DoorKnob",
      "pbrMetallicRoughness": {
        "baseColorFactor": [
          0.016920846777400272,
          0.0174681789438766,
          0.019708368943048015,
          1.0
        ],
        "metallicFactor": 0.30933427606636515,
        "roughnessFactor": 0.7238117297119381
      }
    },
    {
      "alphaCutoff": 0.0,
      "alphaMode": "MASK",
      "extensions": {
        "KHR_materials_specular": {
          "specularColorFactor": [
            1.0,
            1.0,
            1.0
          ],
          "specularFactor": 0.37638209945020784
        }
      },
      "name": "Door_Diffuse",
      "pbrMetallicRoughness": {
        "baseColorTexture": {
          "index": 2
        },
        "metallicRoughnessTexture": {
          "index": 3
        }
      }
    },
    {
      "alphaMode": "BLEND",
      "name": "DoorGlass",
      "pbrMetallicRoughness": {
        "baseColorFactor": [
          1.0,
          1.0,
          1.0,
          0.608001852958028
        ],
        "baseColorTexture": {
          "index": 4
        },
        "metallicFactor": 0.6019065962867696,
        "roughnessFactor": 0.2544769660250393
      }
    },
    {
      "emissiveFactor": [
        0.16761955845960672,
        0.16761955845960672,
        0.16761955845960672
      ],
      "emissiveTexture": {
        "index": 7
      },
      "name": "PurpleRoom_Diffuse",
      "pbrMetallicRoughness": {
        "baseColorTexture": {
          "index": 5
        },
        "metallicFactor": 0.0,
        "metallicRoughnessTexture": {
          "index": 6
        }
      }
    },
    {
      "extensions": {
        "KHR_materials_specular": {
          "specularColorFactor": [
            1.0,
            1.0,
            1.0
          ],
          "specularFactor": 0.5470492862454438
        }
      },
      "name": "GreyColor",
      "pbrMetallicRoughness": {
        "baseColorFactor": [
          0.7665614189803083,
          0.7665614189803083,
          0.7665614189803083,
          1.0
        ],
        "roughnessFactor": 0.851812119808365
      }
    },
    {
      "emissiveFactor": [
        1.0,
        1.0,
        1.0
      ],
      "emissiveTexture": {
        "index": 8
      },
      "name": "LightGrid",
      "pbrMetallicRoughness": {
        "baseColorTexture": {
          "index": 8
        },
        "metallicFactor": 0.3337153027513988,
        "roughnessFactor": 0.3459058160939157
      }
    },
    {
      "name": "Color_M06",
      "pbrMetallicRoughness": {
        "baseColorFactor": [
          0.10286909763063108,
          0.10286909763063108,
          0.10286909763063108,
          1.0
        ],
        "metallicFactor": 0.8396216064658483,
        "roughnessFactor": 0.40685838280649994
      }
    }
  ],
  "meshes": [
    {
      "name": "Material2",
      "primitives": [
        {
          "attributes": {
            "NORMAL": 1,
            "POSITION": 0,
            "TEXCOORD_0": 2
          },
          "indices": 3,
          "material": 0,
          "mode": 4
        }
      ]
    },
    {
      "name": "Material2",
      "primitives": [
        {
          "attributes": {
            "NORMAL": 5,
            "POSITION": 4
          },
          "indices": 6,
          "material": 1,
          "mode": 4
        }
      ]
    },
    {
      "name": "Material2",
      "primitives": [
        {
          "attributes": {
            "NORMAL": 8,
            "POSITION": 7,
            "TEXCOORD_0": 9
          },
          "indices": 10,
          "material": 2,
          "mode": 4
        }
      ]
    },
    {
      "name": "Material2",
      "primitives": [
        {
          "attributes": {
            "NORMAL": 12,
            "POSITION": 11,
            "TEXCOORD_0": 13
          },
          "indices": 14,
          "material": 3,
          "mode": 4
        }
      ]
    },
    {
      "name": "Material2",
      "primitives": [
        {
          "attributes": {
            "NORMAL": 16,
            "POSITION": 15,
            "TEXCOORD_0": 17
          },
          "indices": 18,
          "material": 4,
          "mode": 4
        }
      ]
    },
    {
      "name": "Material2",
      "primitives": [
        {
          "attributes": {
            "NORMAL": 20,
            "POSITION": 19
          },
          "indices": 21,
          "material": 5,
          "mode": 4
        }
      ]
    },
    {
      "name": "Material2",
      "primitives": [
        {
          "attributes": {
            "NORMAL": 23,
            "POSITION": 22,
            "TEXCOORD_0": 24
          },
          "indices": 25,
          "material": 6,
          "mode": 4
        }
      ]
    },
    {
      "name": "Material2",
      "primitives": [
        {
          "attributes": {
            "NORMAL": 27,
            "POSITION": 26
          },
          "indices": 28,
          "material": 7,
          "mode": 4
        }
      ]
    }
  ],
  "nodes": [
    {
      "children": [
        1
      ],
      "matrix": [
        1.0,
        0.0,
        0.0,
        0.0,
        0.0,
        2.220446049250313e-16,
        -1.0,
        0.0,
        0.0,
        1.0,
        2.220446049250313e-16,
        0.0,
        0.0,
        0.0,
        0.0,
        1.0
      ],
      "name": "Sketchfab_model"
    },
    {
      "children": [
        2,
        3,
        4,
        5,
        6,
        7,
        8,
        9,
        10
      ],
      "name": "Collada visual scene group"
    },
    {
      "mesh": 0,
      "name": "Material2"
    },
    {
      "mesh": 1,
      "name": "Material2"
    },
    {
      "mesh": 2,
      "name": "Material2"
    },
    {
      "mesh": 3,
      "name": "Material2"
    },
    {
      "mesh": 4,
      "name": "Material2"
    },
    {
      "mesh": 5,
      "name": "Material2"
    },
    {
      "mesh": 6,
      "name": "Material2"
    },
    {
      "mesh": 7,
      "name": "Material2"
    },
    {
      "children": [
        11
      ],
      "name": "SketchUp"
    },
    {
      "children": [
        12
      ],
      "matrix": [
        0.8027489,
        0.5963172,
        -2.775558e-17,
        0.0,
        -0.154745,
        0.2083142,
        0.9657428,
        0.0,
        0.5758891,
        -0.775249,
        0.2595011,
        0.0,
        569.8422,
        -914.6438,
        334.3629,
        1.0
      ],
      "name": "skp_camera_Last_Saved_SketchUp_View"
    },
    {
      "name": "ID1"
    }
  ],
  "samplers": [
    {
      "magFilter": 9729,
      "minFilter": 9987,
      "wrapS": 10497,
      "wrapT": 10497
    }
  ],
  "scene": 0,
  "scenes": [
    {
      "name": "Sketchfab_Scene",
      "nodes": [
        0
      ]
    }
  ],
  "textures": [
    {
      "sampler": 0,
      "source": 0
    },
    {
      "sampler": 0,
      "source": 1
    },
    {
      "sampler": 0,
      "source": 2
    },
    {
      "sampler": 0,
      "source": 3
    },
    {
      "sampler": 0,
      "source": 4
    },
    {
      "sampler": 0,
      "source": 5
    },
    {
      "sampler": 0,
      "source": 6
    },
    {
      "sampler": 0,
      "source": 7
    },
    {
      "sampler": 0,
      "source": 8
    }
  ]
}
